<svg width="222" height="54" viewBox="0 0 222 54" fill="none" xmlns="http://www.w3.org/2000/svg">
<g clip-path="url(#clip0_304_115)">
<path d="M75.843 35.1853H87.7833V42.261H66.335V35.4064L77.833 21.2549H66.4455V14.1792H87.4516V21.0338L75.843 35.1853Z" fill="#060132"/>
<path d="M119.292 30.3204H100.166C100.276 32.0893 100.829 33.416 101.824 34.3005C102.819 35.185 103.925 35.7378 105.472 35.7378C107.573 35.7378 109.121 34.8533 109.895 32.9738H118.961C118.518 34.8533 117.744 36.5117 116.528 37.9489C115.312 39.3862 113.764 40.6023 111.995 41.3762C110.227 42.2607 108.126 42.5924 105.915 42.5924C103.261 42.5924 100.718 42.0396 98.7284 40.8234C96.6278 39.6073 94.9695 37.9489 93.7533 35.8483C92.5372 33.6372 91.9844 31.0943 91.9844 28.2198C91.9844 25.3453 92.5372 22.6919 93.7533 20.5913C94.9695 18.3801 96.5173 16.7217 98.7284 15.6161C100.829 14.4 103.261 13.8472 106.025 13.8472C108.679 13.8472 111.111 14.4 113.212 15.6161C115.312 16.7217 116.86 18.3801 118.076 20.4807C119.292 22.5813 119.845 25.1242 119.845 27.8881C119.403 28.662 119.403 29.4359 119.292 30.3204ZM110.779 25.5664C110.779 24.1291 110.337 22.913 109.342 22.0285C108.347 21.1441 107.131 20.7018 105.583 20.7018C104.146 20.7018 102.93 21.1441 101.935 21.918C100.94 22.8024 100.276 23.908 100.166 25.5664H110.779Z" fill="#060132"/>
<path d="M132.78 35.1853H144.721V42.261H123.272V35.4064L134.771 21.2549H123.383V14.1792H144.5V21.0338L132.78 35.1853Z" fill="#060132"/>
<path d="M165.837 34.9638V42.2607H161.526C158.43 42.2607 155.998 41.4868 154.339 39.939C152.57 38.3912 151.686 35.9589 151.686 32.421V21.3652H148.369V14.1789H151.686V7.32422H160.199V14.1789H165.727V21.3652H160.199V32.6421C160.199 33.5266 160.42 34.0794 160.752 34.4111C161.194 34.8533 161.857 34.9638 162.742 34.9638H165.837Z" fill="#060132"/>
<path d="M183.637 15.1739C185.074 14.2894 186.733 13.8472 188.612 13.8472V23.0236H186.291C184.19 23.0236 182.642 23.4658 181.537 24.4608C180.431 25.3453 179.878 27.0037 179.878 29.3254V42.3713H171.365V14.1789H179.878V18.8223C180.984 17.3851 182.2 16.1689 183.637 15.1739Z" fill="#060132"/>
<path d="M193.588 20.5913C194.693 18.3801 196.13 16.7217 198.01 15.6161C199.889 14.4 201.99 13.8472 204.201 13.8472C206.191 13.8472 207.85 14.2894 209.397 15.0634C210.835 15.8373 212.051 16.9428 212.825 18.2695V14.2894H221.227V42.3713H212.714V38.3912C211.94 39.7179 210.724 40.7129 209.287 41.5974C207.85 42.3713 206.081 42.8135 204.091 42.8135C201.769 42.8135 199.779 42.2607 197.899 41.0446C196.02 39.8284 194.583 38.17 193.477 35.9589C192.371 33.7477 191.929 31.2049 191.929 28.3304C191.929 25.4558 192.482 22.8024 193.588 20.5913ZM210.945 23.1341C209.729 21.918 208.292 21.2546 206.633 21.2546C204.975 21.2546 203.538 21.8074 202.322 23.1341C201.106 24.3503 200.553 26.1192 200.553 28.2198C200.553 30.3204 201.106 32.0893 202.322 33.416C203.538 34.6322 204.975 35.2955 206.633 35.2955C208.292 35.2955 209.729 34.7427 210.945 33.416C212.161 32.1999 212.714 30.431 212.714 28.3304C212.604 26.1192 212.051 24.4608 210.945 23.1341Z" fill="#060132"/>
<path d="M21.6695 5.33444C24.4335 4.78165 27.5291 4.78165 30.2931 5.33444C31.7303 5.55556 33.057 5.99779 34.2732 6.55058C35.4893 7.10337 36.7055 7.76672 37.9216 8.54063C39.0272 9.31454 40.1328 10.199 41.0172 11.194C41.9017 12.0785 42.8967 13.1841 43.6706 14.2897C44.4445 15.3952 45.1079 16.6114 45.6607 17.9381C46.1029 18.8226 46.8768 19.3753 47.8719 19.3753C48.2035 19.3753 48.4246 19.2648 48.7563 19.1542C49.9725 18.6014 50.5253 17.1642 49.9725 16.0586C49.3091 14.5108 48.5352 12.963 47.5402 11.6363C46.6557 10.199 45.5501 8.98286 44.334 7.76672C43.1178 6.55058 41.9017 5.445 40.4644 4.56053C39.0272 3.67606 37.5899 2.7916 36.0421 2.12825C34.3837 1.4649 32.7254 0.912106 31.067 0.580431C27.6397 -0.193477 23.9913 -0.193477 20.5639 0.580431C19.2372 0.801548 18.4633 2.12825 18.6845 3.45495C19.1267 4.67109 20.3428 5.55556 21.6695 5.33444Z" fill="url(#paint0_linear_304_115)"/>
<path d="M34.4942 15.8375C34.4942 14.5108 33.3886 13.4053 32.0619 13.4053H2.43228C1.10558 13.4053 0 14.5108 0 15.8375C0 17.1642 1.10558 18.2698 2.43228 18.2698H32.1725C33.4992 18.1593 34.4942 17.1642 34.4942 15.8375Z" fill="url(#paint1_linear_304_115)"/>
<path d="M23.8804 24.903C23.8804 26.2297 24.986 27.3353 26.3127 27.3353C27.6394 27.3353 28.7449 26.2297 28.7449 24.903C28.7449 23.5763 27.6394 22.4707 26.3127 22.4707C24.986 22.4707 23.8804 23.5763 23.8804 24.903Z" fill="url(#paint2_linear_304_115)"/>
<path d="M31.1776 44.6932C28.4136 45.246 25.318 45.246 22.554 44.6932C21.1168 44.4721 19.7901 44.0299 18.5739 43.4771C17.3578 42.9243 16.1417 42.261 14.9255 41.4871C13.8199 40.7131 12.7143 39.8287 11.8299 38.8337C10.8349 37.8386 9.95039 36.8436 9.17648 35.738C8.40258 34.6324 7.73923 33.4163 7.18643 32.0896C6.63364 30.8735 5.19638 30.3207 3.98024 30.8735C2.7641 31.3157 2.21131 32.7529 2.7641 33.9691C3.42745 35.5169 4.20136 37.0647 5.19638 38.3914C6.08085 39.8287 7.18643 41.0448 8.40258 42.261C9.61872 43.4771 10.8349 44.5827 12.2721 45.4672C13.7094 46.3516 15.1466 47.2361 16.6945 47.8994C18.3528 48.5628 20.0112 49.1156 21.6696 49.4472C23.4385 49.7789 25.0969 50 26.9764 50C28.7453 50 30.5142 49.7789 32.2832 49.4472C33.6099 49.2261 34.3838 47.8994 34.1627 46.5727C33.831 45.3566 32.5043 44.4721 31.1776 44.6932Z" fill="url(#paint3_linear_304_115)"/>
<path d="M50.4145 31.6475H20.7848C19.4581 31.6475 18.3525 32.7531 18.3525 34.0798C18.3525 35.4065 19.4581 36.5121 20.7848 36.5121H50.525C51.8517 36.5121 52.9573 35.4065 52.9573 34.0798C52.9573 32.7531 51.7412 31.6475 50.4145 31.6475Z" fill="url(#paint4_linear_304_115)"/>
</g>
<defs>
<linearGradient id="paint0_linear_304_115" x1="-28.0027" y1="-62.5144" x2="50.6633" y2="27.5875" gradientUnits="userSpaceOnUse">
<stop stop-color="#5CD0F0"/>
<stop offset="1" stop-color="#66D9BD"/>
</linearGradient>
<linearGradient id="paint1_linear_304_115" x1="-29.2174" y1="-37.4402" x2="28.8579" y2="29.0777" gradientUnits="userSpaceOnUse">
<stop stop-color="#5CD0F0"/>
<stop offset="1" stop-color="#66D9BD"/>
</linearGradient>
<linearGradient id="paint2_linear_304_115" x1="16.9211" y1="14.1232" x2="28.6712" y2="27.5814" gradientUnits="userSpaceOnUse">
<stop stop-color="#5CD0F0"/>
<stop offset="1" stop-color="#66D9BD"/>
</linearGradient>
<linearGradient id="paint3_linear_304_115" x1="-45.0916" y1="-31.6582" x2="33.5731" y2="58.4425" gradientUnits="userSpaceOnUse">
<stop stop-color="#5CD0F0"/>
<stop offset="1" stop-color="#66D9BD"/>
</linearGradient>
<linearGradient id="paint4_linear_304_115" x1="-10.87" y1="-19.2133" x2="47.2059" y2="47.305" gradientUnits="userSpaceOnUse">
<stop stop-color="#5CD0F0"/>
<stop offset="1" stop-color="#66D9BD"/>
</linearGradient>
<clipPath id="clip0_304_115">
<rect width="222" height="54" fill="white"/>
</clipPath>
</defs>
</svg>
